<svg width="19" height="15" viewBox="0 0 19 15" fill="none" xmlns="http://www.w3.org/2000/svg">
<path d="M16.6667 0H1.66667C1.22464 0 0.800716 0.175595 0.488155 0.488155C0.175595 0.800716 0 1.22464 0 1.66667V12.5C0 12.942 0.175595 13.3659 0.488155 13.6785C0.800716 13.9911 1.22464 14.1667 1.66667 14.1667H16.6667C17.1087 14.1667 17.5326 13.9911 17.8452 13.6785C18.1577 13.3659 18.3333 12.942 18.3333 12.5V1.66667C18.3333 1.22464 18.1577 0.800716 17.8452 0.488155C17.5326 0.175595 17.1087 0 16.6667 0ZM1.66667 12.5V1.66667H8.33333V12.5H1.66667ZM16.6667 12.5H10V1.66667H16.6667V12.5ZM10.8333 4.58333H15.8333V5.83333H10.8333V4.58333ZM10.8333 6.66667H15.8333V7.91667H10.8333V6.66667ZM10.8333 8.75H15.8333V10H10.8333V8.75Z" fill="#00B894"/>
</svg>
