<svg width="17" height="14" viewBox="0 0 17 14" fill="none" xmlns="http://www.w3.org/2000/svg">
<path d="M1.66667 0L3.33333 3.33333H5.83333L4.16667 0H5.83333L7.5 3.33333H10L8.33333 0H10L11.6667 3.33333H14.1667L12.5 0H15C15.4583 0 15.8508 0.163333 16.1775 0.49C16.5042 0.816666 16.6672 1.20889 16.6667 1.66667V11.6667C16.6667 12.125 16.5036 12.5175 16.1775 12.8442C15.8514 13.1708 15.4589 13.3339 15 13.3333H1.66667C1.20833 13.3333 0.816111 13.1703 0.49 12.8442C0.163889 12.5181 0.000555556 12.1256 0 11.6667V1.66667C0 1.20833 0.163333 0.816111 0.49 0.49C0.816667 0.163889 1.20889 0.000555556 1.66667 0ZM1.66667 5V11.6667H15V5H1.66667Z" fill="#00B894"/>
</svg>
