<svg width="15" height="16" viewBox="0 0 15 16" fill="none" xmlns="http://www.w3.org/2000/svg">
<path d="M5.25391 9.87826C5.08815 9.87826 4.92918 9.9441 4.81196 10.0613C4.69475 10.1785 4.62891 10.3375 4.62891 10.5033C4.62891 10.669 4.69475 10.828 4.81196 10.9452C4.92918 11.0624 5.08815 11.1283 5.25391 11.1283H6.71224V12.5866C6.71224 12.7523 6.77809 12.9113 6.8953 13.0285C7.01251 13.1457 7.17148 13.2116 7.33724 13.2116C7.503 13.2116 7.66197 13.1457 7.77918 13.0285C7.89639 12.9113 7.96224 12.7523 7.96224 12.5866V11.1283H9.42057C9.58633 11.1283 9.7453 11.0624 9.86251 10.9452C9.97972 10.828 10.0456 10.669 10.0456 10.5033C10.0456 10.3375 9.97972 10.1785 9.86251 10.0613C9.7453 9.9441 9.58633 9.87826 9.42057 9.87826H7.96224V8.41992C7.96224 8.25416 7.89639 8.09519 7.77918 7.97798C7.66197 7.86077 7.503 7.79492 7.33724 7.79492C7.17148 7.79492 7.01251 7.86077 6.8953 7.97798C6.77809 8.09519 6.71224 8.25416 6.71224 8.41992V9.87826H5.25391Z" fill="#00B894"/>
<path fill-rule="evenodd" clip-rule="evenodd" d="M3.3775 1.72135V2.75385C3.06972 2.77718 2.76222 2.80301 2.455 2.83135C1.78363 2.89366 1.15973 3.20447 0.70559 3.70285C0.251452 4.20123 -0.000185378 4.85125 1.02465e-07 5.52551V12.1505C3.92384e-06 12.8247 0.251706 13.4746 0.705808 13.973C1.15991 14.4713 1.7837 14.7822 2.455 14.8447C5.70167 15.1472 8.97 15.1472 12.2167 14.8447C12.888 14.7822 13.5118 14.4713 13.9659 13.973C14.42 13.4746 14.6717 12.8247 14.6717 12.1505V5.52551C14.6719 4.85125 14.4202 4.20123 13.9661 3.70285C13.5119 3.20447 12.888 2.89366 12.2167 2.83135C11.9094 2.8028 11.6019 2.77697 11.2942 2.75385V1.72051C11.2941 1.37137 11.1687 1.03385 10.9408 0.769296C10.713 0.504745 10.3978 0.330719 10.0525 0.278846L9.03583 0.126346C7.90876 -0.0421154 6.76291 -0.0421154 5.63583 0.126346L4.61917 0.278846C4.27389 0.330719 3.95869 0.504745 3.73084 0.769296C3.50299 1.03385 3.37762 1.3722 3.3775 1.72135ZM8.85 1.36218C7.84612 1.21224 6.82554 1.21224 5.82167 1.36218L4.805 1.51468C4.75567 1.52206 4.71063 1.54689 4.67806 1.58466C4.64549 1.62244 4.62755 1.67064 4.6275 1.72051V2.67301C6.43185 2.57981 8.23981 2.57981 10.0442 2.67301V1.72051C10.0441 1.67064 10.0262 1.62244 9.99361 1.58466C9.96103 1.54689 9.91599 1.52206 9.86667 1.51468L8.85 1.36218ZM12.1008 4.07468C8.93102 3.77965 5.74065 3.77965 2.57083 4.07468C2.20965 4.10813 1.87399 4.27528 1.62965 4.54336C1.38531 4.81144 1.24991 5.16112 1.25 5.52385V5.71135H13.4217V5.52385C13.4217 4.77218 12.8492 4.14468 12.1008 4.07468ZM13.4217 6.96051H1.25V12.148C1.25 12.8997 1.8225 13.528 2.57083 13.598C5.74072 13.8916 8.93095 13.8916 12.1008 13.598C12.4622 13.5646 12.7979 13.3973 13.0423 13.129C13.2867 12.8608 13.422 12.5109 13.4217 12.148V6.96051Z" fill="#00B894"/>
</svg>
