<svg width="19" height="19" viewBox="0 0 19 19" fill="none" xmlns="http://www.w3.org/2000/svg">
<path d="M9.16829 17.5017C13.7707 17.5017 17.5016 13.7707 17.5016 9.16835C17.5016 4.56598 13.7707 0.835022 9.16829 0.835022C4.56592 0.835022 0.834961 4.56598 0.834961 9.16835C0.834961 13.7707 4.56592 17.5017 9.16829 17.5017Z" stroke="#00B894" stroke-width="1.67" stroke-linecap="round" stroke-linejoin="round"/>
<path d="M12.5016 5.835H7.50163C7.0596 5.835 6.63568 6.0106 6.32312 6.32316C6.01056 6.63572 5.83496 7.05964 5.83496 7.50167C5.83496 7.9437 6.01056 8.36762 6.32312 8.68018C6.63568 8.99274 7.0596 9.16833 7.50163 9.16833H10.835C11.277 9.16833 11.7009 9.34393 12.0135 9.65649C12.326 9.96905 12.5016 10.393 12.5016 10.835C12.5016 11.277 12.326 11.701 12.0135 12.0135C11.7009 12.3261 11.277 12.5017 10.835 12.5017H5.83496M9.16829 14.1683V4.16833" stroke="#00B894" stroke-width="1.67" stroke-linecap="round" stroke-linejoin="round"/>
</svg>
