<svg width="17" height="16" viewBox="0 0 17 16" fill="none" xmlns="http://www.w3.org/2000/svg">
<path d="M4.91691 4.08333V2.41667C4.91691 1.97464 5.09251 1.55072 5.40507 1.23816C5.71763 0.925595 6.14155 0.75 6.58358 0.75H9.91691C10.3589 0.75 10.7829 0.925595 11.0954 1.23816C11.408 1.55072 11.5836 1.97464 11.5836 2.41667V4.08333M8.25024 8.25V8.25833M0.750244 5.75C0.750244 5.30797 0.925839 4.88405 1.2384 4.57149C1.55096 4.25893 1.97488 4.08333 2.41691 4.08333H14.0836C14.5256 4.08333 14.9495 4.25893 15.2621 4.57149C15.5746 4.88405 15.7502 5.30797 15.7502 5.75V13.25C15.7502 13.692 15.5746 14.116 15.2621 14.4285C14.9495 14.7411 14.5256 14.9167 14.0836 14.9167H2.41691C1.97488 14.9167 1.55096 14.7411 1.2384 14.4285C0.925839 14.116 0.750244 13.692 0.750244 13.25V5.75Z" stroke="#00B894" stroke-width="1.5" stroke-linecap="round" stroke-linejoin="round"/>
<path d="M0.750244 9.08331C3.07656 10.2556 5.64527 10.8662 8.25024 10.8662C10.8552 10.8662 13.4239 10.2556 15.7502 9.08331" stroke="#00B894" stroke-width="1.5" stroke-linecap="round" stroke-linejoin="round"/>
</svg>
