<svg width="17" height="15" viewBox="0 0 17 15" fill="none" xmlns="http://www.w3.org/2000/svg">
<g clip-path="url(#clip0_111_103)">
<path d="M16.875 5.625H15.6125C15.5945 5.13121 15.4754 4.64637 15.2625 4.20045C15.0497 3.75453 14.7476 3.35702 14.375 3.0325V0.625C14.375 0.50893 14.3427 0.395153 14.2817 0.296418C14.2206 0.197683 14.1333 0.117891 14.0295 0.0659832C13.9257 0.0140752 13.8095 -0.007898 13.6939 0.00252573C13.5783 0.0129495 13.4679 0.0553582 13.375 0.125L11.0419 1.875H8.125C4.68125 1.875 2.21063 3.90063 1.9075 6.875H1.875C1.70924 6.875 1.55027 6.80915 1.43306 6.69194C1.31585 6.57473 1.25 6.41576 1.25 6.25V5H0V6.25C0.000496384 6.74713 0.1982 7.22375 0.549723 7.57528C0.901246 7.9268 1.37787 8.1245 1.875 8.125H1.91875C2.00927 8.94457 2.27557 9.73497 2.69947 10.4422C3.12336 11.1495 3.69488 11.7569 4.375 12.2231V14.375C4.375 14.5408 4.44085 14.6997 4.55806 14.8169C4.67527 14.9342 4.83424 15 5 15H7.5C7.66576 15 7.82473 14.9342 7.94194 14.8169C8.05915 14.6997 8.125 14.5408 8.125 14.375V13.125H10V14.375C10 14.5408 10.0658 14.6997 10.1831 14.8169C10.3003 14.9342 10.4592 15 10.625 15H13.125C13.2908 15 13.4497 14.9342 13.5669 14.8169C13.6842 14.6997 13.75 14.5408 13.75 14.375V12.2731C14.2013 12.0588 14.5958 11.7414 14.9019 11.3466C15.2079 10.9517 15.4169 10.4905 15.5119 10H16.875C17.0408 10 17.1997 9.93415 17.3169 9.81694C17.4342 9.69973 17.5 9.54076 17.5 9.375V6.25C17.5 6.08424 17.4342 5.92527 17.3169 5.80806C17.1997 5.69085 17.0408 5.625 16.875 5.625ZM16.25 8.75H14.4525C14.2619 10.4706 13.9381 10.9281 12.5 11.4469V13.75H11.25V11.875H6.875V13.75H5.625V11.4862C4.8723 11.1284 4.23728 10.5633 3.79446 9.85721C3.35164 9.15115 3.11941 8.33342 3.125 7.5C3.125 4.47813 5.63625 3.125 8.125 3.125H11.4587L13.125 1.875V3.61C14.6363 4.7725 14.3206 5.60125 14.3862 6.875H16.25V8.75Z" fill="#00B894"/>
<path d="M8.56407 5.875H10.7516V4.625H9.50157V4H8.25157V4.65625C7.87184 4.73336 7.5343 4.94881 7.30448 5.26079C7.07467 5.57277 6.96897 5.95901 7.00791 6.34453C7.04686 6.73005 7.22766 7.08736 7.51522 7.34707C7.80278 7.60679 8.17659 7.75039 8.56407 7.75H9.18907C9.27195 7.75 9.35144 7.78292 9.41005 7.84153C9.46865 7.90013 9.50157 7.97962 9.50157 8.0625C9.50157 8.14538 9.46865 8.22487 9.41005 8.28347C9.35144 8.34208 9.27195 8.375 9.18907 8.375H7.00157V9.625H8.25157V10.25H9.50157V9.59375C9.88131 9.51664 10.2188 9.30119 10.4487 8.98921C10.6785 8.67723 10.7842 8.29099 10.7452 7.90547C10.7063 7.51995 10.5255 7.16265 10.2379 6.90293C9.95037 6.64321 9.57656 6.49961 9.18907 6.5H8.56407C8.48119 6.5 8.40171 6.46708 8.3431 6.40847C8.2845 6.34987 8.25157 6.27038 8.25157 6.1875C8.25157 6.10462 8.2845 6.02513 8.3431 5.96653C8.40171 5.90792 8.48119 5.875 8.56407 5.875Z" fill="#00B894"/>
</g>
<defs>
<clipPath id="clip0_111_103">
<rect width="17" height="15" fill="white"/>
</clipPath>
</defs>
</svg>
