<svg width="14" height="17" viewBox="0 0 14 17" fill="none" xmlns="http://www.w3.org/2000/svg">
<path d="M1.66667 16.6667C1.20833 16.6667 0.816111 16.5036 0.49 16.1775C0.163889 15.8514 0.000555556 15.4589 0 15V5C0 4.54167 0.163333 4.14944 0.49 3.82333C0.816666 3.49722 1.20889 3.33389 1.66667 3.33333H3.33333C3.33333 2.41667 3.65972 1.63194 4.3125 0.979167C4.96528 0.326389 5.75 0 6.66667 0C7.58333 0 8.36805 0.326389 9.02083 0.979167C9.67361 1.63194 10 2.41667 10 3.33333H11.6667C12.125 3.33333 12.5175 3.49667 12.8442 3.82333C13.1708 4.15 13.3339 4.54222 13.3333 5V15C13.3333 15.4583 13.1703 15.8508 12.8442 16.1775C12.5181 16.5042 12.1256 16.6672 11.6667 16.6667H1.66667ZM1.66667 15H11.6667V5H10V6.66667C10 6.90278 9.92 7.10083 9.76 7.26083C9.6 7.42083 9.40222 7.50056 9.16667 7.5C8.93111 7.49944 8.73333 7.41944 8.57333 7.26C8.41333 7.10056 8.33333 6.90278 8.33333 6.66667V5H5V6.66667C5 6.90278 4.92 7.10083 4.76 7.26083C4.6 7.42083 4.40222 7.50056 4.16667 7.5C3.93111 7.49944 3.73333 7.41944 3.57333 7.26C3.41333 7.10056 3.33333 6.90278 3.33333 6.66667V5H1.66667V15ZM5 3.33333H8.33333C8.33333 2.875 8.17028 2.48278 7.84417 2.15667C7.51805 1.83056 7.12556 1.66722 6.66667 1.66667C6.20778 1.66611 5.81556 1.82944 5.49 2.15667C5.16444 2.48389 5.00111 2.87611 5 3.33333Z" fill="#00B894"/>
</svg>
