<svg width="18" height="18" viewBox="0 0 18 18" fill="none" xmlns="http://www.w3.org/2000/svg">
<path d="M7.16675 0.5C5.10008 0.53 3.92925 0.683333 3.14341 1.46917C2.16675 2.445 2.16675 4.01667 2.16675 7.15917V8.82583C2.16675 11.9683 2.16675 13.54 3.14341 14.5158C4.12008 15.4917 5.69091 15.4925 8.83341 15.4925C11.9759 15.4925 13.5476 15.4925 14.5234 14.5158C15.4992 13.5392 15.5001 11.9683 15.5001 8.82583V7.15917C15.5001 4.01667 15.5001 2.445 14.5234 1.46917C13.7376 0.683333 12.5667 0.53 10.5001 0.5" stroke="#00B894" stroke-linecap="round"/>
<path d="M12.1667 9.65914H15.5L16.8333 8.65914C16.9368 8.58152 17.0208 8.48086 17.0787 8.36515C17.1365 8.24944 17.1667 8.12184 17.1667 7.99247V7.15914C17.1667 6.93813 17.0789 6.72616 16.9226 6.56988C16.7663 6.4136 16.5543 6.32581 16.3333 6.32581H15.5M8.83333 9.65914H2.16667L0.833333 8.65914C0.729837 8.58152 0.645834 8.48086 0.587977 8.36515C0.530121 8.24944 0.5 8.12184 0.5 7.99247V7.15914C0.5 6.93813 0.587797 6.72616 0.744078 6.56988C0.900358 6.4136 1.11232 6.32581 1.33333 6.32581H2.16667M11.75 12.1591H13M4.66667 12.1591H5.91667M3.83333 15.0758V16.3258C3.83333 16.5468 3.92113 16.7588 4.07741 16.9151C4.23369 17.0713 4.44565 17.1591 4.66667 17.1591H5.91667C6.13768 17.1591 6.34964 17.0713 6.50592 16.9151C6.6622 16.7588 6.75 16.5468 6.75 16.3258V15.4925M13.8333 15.0758V16.3258C13.8333 16.5468 13.7455 16.7588 13.5893 16.9151C13.433 17.0713 13.221 17.1591 13 17.1591H11.75C11.529 17.1591 11.317 17.0713 11.1607 16.9151C11.0045 16.7588 10.9167 16.5468 10.9167 16.3258V15.4925" stroke="#00B894" stroke-linecap="round" stroke-linejoin="round"/>
<path d="M2.58325 2.99249H5.70825M15.0833 2.99249H8.83325" stroke="#00B894" stroke-linecap="round"/>
</svg>
