<svg width="22" height="22" viewBox="0 0 22 22" fill="none" xmlns="http://www.w3.org/2000/svg">
<path d="M18 7C19.6569 7 21 5.65685 21 4C21 2.34315 19.6569 1 18 1C16.3431 1 15 2.34315 15 4C15 5.65685 16.3431 7 18 7Z" stroke="#64748B" stroke-width="2"/>
<path d="M6 13H15" stroke="#64748B" stroke-width="2" stroke-linecap="round"/>
<path d="M6 16.5H12" stroke="#64748B" stroke-width="2" stroke-linecap="round"/>
<path d="M1 11C1 15.714 1 18.0711 2.46447 19.5355C3.92893 21 6.28595 21 11 21C15.714 21 18.0711 21 19.5355 19.5355C21 18.0711 21 15.714 21 11V9.5M12.5 1H11C6.28595 1 3.92893 1 2.46447 2.46447C1.49073 3.43821 1.16444 4.80655 1.0551 7" stroke="#64748B" stroke-width="2" stroke-linecap="round"/>
</svg>
