<svg width="12" height="12" viewBox="0 0 12 12" fill="none" xmlns="http://www.w3.org/2000/svg">
<path d="M1.25 10H2.14062L8.25 3.89063L7.35937 3L1.25 9.10938V10ZM0 11.25V8.59375L8.25 0.359375C8.375 0.244792 8.51312 0.15625 8.66437 0.0937501C8.81562 0.0312501 8.97437 0 9.14062 0C9.30687 0 9.46833 0.0312501 9.625 0.0937501C9.78167 0.15625 9.91708 0.25 10.0312 0.375L10.8906 1.25C11.0156 1.36458 11.1069 1.5 11.1644 1.65625C11.2219 1.8125 11.2504 1.96875 11.25 2.125C11.25 2.29167 11.2215 2.45063 11.1644 2.60188C11.1073 2.75312 11.016 2.89104 10.8906 3.01562L2.65625 11.25H0ZM7.79687 3.45312L7.35937 3L8.25 3.89063L7.79687 3.45312Z" fill="#333333"/>
</svg>
